<svg width="210" height="212" viewBox="0 0 210 212" fill="none" xmlns="http://www.w3.org/2000/svg">
<circle cx="105" cy="107" r="104" stroke="black" stroke-width="2"/>
<mask id="mask0" mask-type="alpha" maskUnits="userSpaceOnUse" x="0" y="0" width="210" height="210">
<circle cx="105" cy="105" r="102.5" fill="#7A5656" stroke="black" stroke-width="5"/>
</mask>
<g mask="url(#mask0)">
<path d="M137.708 169.945H137.688C135.647 168.4 133.51 167.026 131.259 165.786C131.201 165.748 131.144 165.71 131.068 165.691C120.422 159.815 113.211 148.482 113.211 135.452L97.09 135.375C97.09 148.444 89.821 159.834 79.08 165.69C79.08 165.69 79.061 165.69 79.042 165.709C76.771 166.949 74.597 168.342 72.536 169.868C59.181 179.808 50.539 195.7 50.539 213.634H159.609C159.61 195.739 151.006 179.884 137.708 169.945Z" fill="#FFB9B9"/>
<path d="M159.609 213.628H50.538C50.538 195.694 59.18 179.802 72.535 169.862C74.596 168.336 76.77 166.943 79.04 165.703C79.06 165.684 79.079 165.684 79.079 165.684C80.834 164.711 82.513 163.604 84.058 162.345C89.4 167.821 96.86 171.217 105.121 171.217C113.363 171.217 120.804 167.821 126.145 162.364C127.671 163.623 129.332 164.73 131.067 165.684C131.143 165.703 131.201 165.741 131.258 165.779C133.509 167.019 135.646 168.393 137.687 169.938H137.707C151.005 179.878 159.609 195.732 159.609 213.628Z" fill="#ED5564"/>
<path d="M63.217 54.09V96.926C63.217 125.902 88.654 149.391 105.075 149.391C121.494 149.391 146.933 125.902 146.933 96.926V54.09H63.217Z" fill="#FFB9B9"/>
<path d="M140.114 46.206C130.991 34.783 117.142 27.48 101.651 27.48C74.13 27.48 51.841 50.452 51.841 78.781C51.841 93.817 58.108 107.337 68.115 116.713C65.537 110.243 64.097 102.991 64.097 95.333C64.097 83.026 67.837 71.755 74.054 63.087C80.65 66.019 91.34 67.08 103.065 65.463C114.69 63.871 124.596 60.03 130.181 55.456C140.366 64.452 146.987 78.958 146.987 95.333C146.987 103.723 145.268 111.608 142.185 118.532C152.015 114.463 159.243 99.958 159.243 82.697C159.243 64.224 150.954 48.986 140.114 46.206Z" fill="#2F2E41"/>
</g>
</svg>
