<svg width="913" height="772" viewBox="0 0 913 772" fill="none" xmlns="http://www.w3.org/2000/svg">
<g clip-path="url(#clip0)">
<path d="M381.598 677.025C310.573 677.025 241.744 652.398 186.841 607.339C131.937 562.281 94.3552 499.579 80.4989 429.918C66.6426 360.257 77.3689 287.947 110.85 225.307C144.332 162.668 198.497 113.576 264.116 86.3959C329.735 59.2155 402.749 55.6287 470.717 76.2464C538.684 96.8642 597.4 140.411 636.86 199.467C676.32 258.523 694.082 329.434 687.12 400.117C680.158 470.801 648.903 536.885 598.68 587.107C570.239 615.704 536.408 638.376 499.146 653.811C461.884 669.245 421.931 677.136 381.598 677.025ZM381.598 65.0254C213.421 65.0254 76.5984 201.848 76.5984 370.025C76.5984 538.203 213.421 675.025 381.598 675.025C549.776 675.025 686.598 538.203 686.598 370.025C686.598 201.848 549.776 65.0254 381.598 65.0254Z" fill="#3F3D56"/>
<path d="M121.893 99.8554C121.893 99.8554 73.9299 86.3446 59.7435 151.872C45.5571 217.4 56.3658 250.501 56.3658 250.501L163.439 238.004C163.439 238.004 193.839 119.784 121.893 99.8554Z" fill="#E7AA4F"/>
<path d="M28.3614 457.311L50.2288 551.614L54.329 588.516C54.329 588.516 51.6664 627.123 66.0502 660.979C66.2403 661.426 66.4334 661.873 66.6294 662.318C81.6633 696.486 80.2966 708.787 80.2966 708.787H98.0639L95.3305 650.018C95.3305 650.018 95.3305 607.65 88.4969 591.249L84.3967 462.778L28.3614 457.311Z" fill="#FFB9B9"/>
<path d="M103.531 476.445L167.766 592.616C167.766 592.616 180.067 641.818 193.734 656.852L225.168 721.087L238.836 695.12L201.934 569.382L167.766 470.978L103.531 476.445Z" fill="#FFB9B9"/>
<path d="M100.797 701.953L77.5631 703.32L76.1964 725.187C76.1964 725.187 33.8282 768.922 62.5293 770.289C91.2303 771.656 95.3304 759.355 95.3304 759.355C95.3304 759.355 111.731 747.055 111.731 741.588C111.731 736.121 108.998 719.721 106.264 715.62C103.531 711.52 100.797 701.953 100.797 701.953Z" fill="#2F2E41"/>
<path d="M238.836 685.553L214.235 706.053C214.235 706.053 233.369 756.622 241.569 755.255C249.769 753.888 316.738 706.053 309.905 697.853C303.071 689.653 293.504 695.12 293.504 695.12C293.504 695.12 263.436 710.154 256.603 703.32L238.836 685.553Z" fill="#2F2E41"/>
<path d="M33.8282 372.575L21.5278 419.043C21.5278 419.043 -8.53997 450.478 2.39378 454.578C13.3275 458.678 21.5278 454.578 22.8945 460.045C24.2613 465.511 66.6294 479.179 83.03 475.078L91.2303 470.978C91.2303 470.978 96.6972 488.746 104.897 487.379C113.098 486.012 178.7 486.012 177.333 481.912C175.967 477.812 166.4 462.778 166.4 458.678C166.4 454.578 159.566 438.177 159.566 438.177C160.309 437.44 160.789 436.48 160.933 435.444C160.933 434.077 158.199 364.374 158.199 364.374L47.4954 358.908L33.8282 372.575Z" fill="#2F2E41"/>
<path d="M111.731 204.469C131.356 204.469 147.266 188.559 147.266 168.934C147.266 149.309 131.356 133.399 111.731 133.399C92.1058 133.399 76.1964 149.309 76.1964 168.934C76.1964 188.559 92.1058 204.469 111.731 204.469Z" fill="#FFB9B9"/>
<path d="M100.114 195.585C100.114 195.585 104.214 220.186 89.1802 227.02L74.1464 233.853L132.915 278.955L153.416 222.919C153.416 222.919 132.915 218.819 134.282 190.118L100.114 195.585Z" fill="#FFB9B9"/>
<path d="M92.597 231.803C92.597 231.803 130.392 240.747 145.662 219.191L180.067 223.603L170.5 334.307C170.5 334.307 171.867 394.442 156.833 395.809C141.799 397.176 147.266 383.509 147.266 383.509C147.266 383.509 140.432 393.076 129.498 393.076C118.565 393.076 96.6972 384.875 96.6972 384.875C96.6972 384.875 65.2627 380.775 55.6957 382.142C46.1287 383.508 5.12721 390.342 44.762 350.707C44.762 350.707 65.2627 337.04 62.5293 332.94C59.7958 328.84 55.6957 311.073 55.6957 311.073L57.0624 234.536L87.3178 227.866L92.597 231.803Z" fill="#ED5564"/>
<path d="M42.0285 404.009C42.0285 404.009 74.8297 425.877 81.6633 409.476C88.4968 393.075 51.5955 386.242 51.5955 386.242L37.9283 391.709L42.0285 404.009Z" fill="#FFB9B9"/>
<path d="M145.899 413.576C145.899 413.576 104.897 410.843 111.731 425.877C118.565 440.911 156.833 428.61 156.833 428.61L145.899 413.576Z" fill="#FFB9B9"/>
<path d="M63.8959 237.27L57.0624 234.536C57.0624 234.536 46.1286 241.37 36.5616 263.237C26.9946 285.105 9.22732 322.006 9.22732 322.006C9.22732 322.006 1.02701 323.373 5.12716 331.573C9.22731 339.773 9.22732 338.407 6.49389 342.507C3.76046 346.607 1.02702 350.707 3.76046 353.441C6.4939 356.174 9.22731 356.174 7.86059 361.641C6.49387 367.108 6.49388 372.575 7.86059 373.941C9.2273 375.308 20.161 382.142 18.7943 386.242C17.4276 390.342 11.9607 391.709 20.161 391.709C28.3613 391.709 31.0948 405.376 31.0948 405.376L47.4954 408.109C47.4954 408.109 37.9284 388.975 58.4291 387.609C58.4291 387.609 52.9622 383.508 52.9622 379.408C52.9622 375.308 57.0624 375.308 50.2288 373.941C43.3952 372.575 42.0285 371.208 43.3952 367.108C44.7619 363.008 46.1286 360.274 43.3952 360.274C40.6618 360.274 37.9283 364.374 40.6618 360.274C43.3952 356.174 35.1949 347.974 35.1949 347.974C35.1949 347.974 51.5955 305.606 62.5292 301.505C73.463 297.405 63.8959 237.27 63.8959 237.27Z" fill="#ED5564"/>
<path d="M169.133 224.969L180.067 223.603C180.067 223.603 193.734 226.336 197.834 242.737C201.934 259.137 203.301 345.24 203.301 345.24C203.301 345.24 197.834 350.707 200.568 357.541C203.301 364.374 204.668 363.008 201.934 367.108C199.201 371.208 193.734 373.941 193.734 379.408C193.734 384.875 193.734 387.609 191.001 388.975C188.267 390.342 184.167 388.975 184.167 393.075C184.167 397.176 171.867 406.743 173.233 409.476C174.6 412.209 180.067 423.143 160.933 428.61L154.099 435.444C154.099 435.444 145.899 413.576 137.699 413.576C137.699 413.576 144.532 412.209 143.165 406.743C141.799 401.276 147.266 398.542 147.266 398.542L170.5 364.374L174.6 345.24L155.466 306.972L169.133 224.969Z" fill="#ED5564"/>
<path d="M125.625 119.925C125.625 119.925 112.114 155.728 79.0121 170.59L73.6078 138.84L125.625 119.925Z" fill="#E7AA4F"/>
<path d="M147.949 172.351C150.465 172.351 152.505 169.291 152.505 165.517C152.505 161.743 150.465 158.684 147.949 158.684C145.433 158.684 143.393 161.743 143.393 165.517C143.393 169.291 145.433 172.351 147.949 172.351Z" fill="#FFB9B9"/>
<path d="M800.894 163.704C809.178 163.704 815.894 156.988 815.894 148.704C815.894 140.419 809.178 133.704 800.894 133.704C792.609 133.704 785.894 140.419 785.894 148.704C785.894 156.988 792.609 163.704 800.894 163.704Z" fill="#ED5564"/>
<path d="M442.894 254.704C452.283 254.704 459.894 247.093 459.894 237.704C459.894 228.315 452.283 220.704 442.894 220.704C433.505 220.704 425.894 228.315 425.894 237.704C425.894 247.093 433.505 254.704 442.894 254.704Z" fill="#ED5564"/>
<g filter="url(#filter0_d)">
<g clip-path="url(#clip1)">
<path d="M895.035 313.95C883.529 286.86 867.059 262.526 846.083 241.635C825.093 220.751 800.646 204.345 773.449 192.89C745.279 181.025 715.349 175.005 684.5 175.005C653.657 175.005 623.728 181.024 595.556 192.89C568.347 204.345 543.905 220.752 522.922 241.635C501.947 262.526 485.469 286.86 473.963 313.95C462.047 341.999 456 371.797 456 402.505C456 433.218 462.046 463.017 473.964 491.065C485.469 518.143 501.948 542.483 522.923 563.367C543.905 584.266 568.347 600.663 595.557 612.118C623.729 623.977 653.657 630.003 684.5 630.003C715.35 630.003 745.28 623.977 773.45 612.118C800.647 600.662 825.094 584.265 846.084 563.367C867.06 542.483 883.53 518.142 895.036 491.065C906.947 463.017 913 433.218 913 402.505C912.999 371.797 906.946 341.999 895.035 313.95Z" fill="#ED5564"/>
<path d="M456.088 408.887C456.869 437.338 462.866 464.957 473.961 491.061C485.467 518.139 501.945 542.478 522.92 563.363C543.903 584.261 568.344 600.659 595.554 612.114C623.727 623.973 653.655 629.999 684.498 629.999C715.347 629.999 745.277 623.973 773.448 612.114C800.644 600.658 825.091 584.26 846.082 563.363C867.058 542.478 883.527 518.138 895.034 491.061C906.136 464.957 912.132 437.338 912.914 408.887H456.088Z" fill="#E6E9ED"/>
<path d="M911.911 424.912C912.636 417.496 912.999 410.026 912.999 402.5C912.999 394.044 912.539 385.657 911.633 377.36C900.28 379.103 883.976 381.373 863.434 383.629C824.438 387.913 761.762 393.023 684.5 393.023C607.243 393.023 544.561 387.913 505.573 383.629C485.023 381.373 468.726 379.103 457.374 377.36C456.461 385.657 456 394.045 456 402.5C456 410.026 456.362 417.497 457.088 424.912C494.158 430.466 575.829 440.407 684.5 440.407C793.171 440.407 874.84 430.466 911.911 424.912Z" fill="#2F2E41"/>
<path d="M732.113 411.977C732.113 438.157 710.788 459.374 684.5 459.374C658.211 459.374 636.893 438.157 636.893 411.977C636.893 385.802 658.211 364.585 684.5 364.585C710.788 364.586 732.113 385.803 732.113 411.977Z" fill="#E6E9ED"/>
<path d="M684.5 326.665C637.249 326.665 598.812 364.941 598.812 411.978C598.812 459.014 637.25 497.282 684.5 497.282C731.75 497.282 770.186 459.014 770.186 411.978C770.186 364.941 731.75 326.665 684.5 326.665ZM684.5 449.905C663.504 449.905 646.418 432.881 646.418 411.978C646.418 391.073 663.503 374.063 684.5 374.063C705.503 374.063 722.573 391.073 722.573 411.978C722.573 432.881 705.503 449.905 684.5 449.905Z" fill="#2F2E41"/>
</g>
</g>
</g>
<defs>
<filter id="filter0_d" x="452" y="175" width="465" height="463" filterUnits="userSpaceOnUse" color-interpolation-filters="sRGB">
<feFlood flood-opacity="0" result="BackgroundImageFix"/>
<feColorMatrix in="SourceAlpha" type="matrix" values="0 0 0 0 0 0 0 0 0 0 0 0 0 0 0 0 0 0 127 0"/>
<feOffset dy="4"/>
<feGaussianBlur stdDeviation="2"/>
<feColorMatrix type="matrix" values="0 0 0 0 0 0 0 0 0 0 0 0 0 0 0 0 0 0 0.25 0"/>
<feBlend mode="normal" in2="BackgroundImageFix" result="effect1_dropShadow"/>
<feBlend mode="normal" in="SourceGraphic" in2="effect1_dropShadow" result="shape"/>
</filter>
<clipPath id="clip0">
<rect width="912.896" height="771.704" fill="white"/>
</clipPath>
<clipPath id="clip1">
<rect x="456" y="175" width="457" height="455" fill="white"/>
</clipPath>
</defs>
</svg>
